<svg id="Layer_1" data-name="Layer 1" xmlns="http://www.w3.org/2000/svg" viewBox="0 0 612.49 137.67"><defs><style>.cls-1{fill:#fff;}</style></defs><title>kompleks-logo</title><path class="cls-1" d="M53,40.68c-10.23,2.37-11.91,12-9.28,23.36l1.13,4.86,29-6.7-.43-1.85C70.74,48.61,64.58,38,53,40.68Z"/><path class="cls-1" d="M48.46,22.42,46,11.73C52.88,10,57,8,59.26,6.15h-52V107.93H36.56A42.93,42.93,0,0,1,33,98.05l17.13-4c.75,3.25,2.85,9.82,7.26,13.84H75.33c6.73-5.93,5-18.22,2.67-28.06l-1.2-5.2L29.62,85.57,27.4,76C21.58,50.81,24.81,34.14,50,28.32c28.38-6.55,39.23,17.47,44.7,41.15C99,88,98,100,94.22,107.93H109V6.15H76.12C71.39,18.1,53.59,21.64,48.46,22.42Zm-38.94-12L24.88,6.92s-2,9.59,19,5.3L46.33,23C39.17,25.1,14.26,31,9.52,10.47Z"/><polygon class="cls-1" points="590.77 6.14 583.53 23.52 592.46 23.52 605.25 6.14 590.77 6.14"/><path class="cls-1" d="M349.79,29.25c-8.29,0-13.91,4.49-17,11.24h-.28V31.21H318.18V131.53h15.17V98h.28c2.81,6.74,9,10.82,17.14,10.82,10.4,0,23.32-7,23.32-38.78C374.09,44,367.07,29.25,349.79,29.25Zm-4.36,67.43c-10.67,0-12.92-10.39-12.92-28.52,0-16.15,2.39-26.83,12.78-26.83s12.79,10.82,12.79,28C358.08,90.22,354.14,96.68,345.43,96.68Z"/><rect class="cls-1" x="383.65" y="6.15" width="15.17" height="101.79"/><path class="cls-1" d="M437.07,29.25C416,29.25,410.38,41.89,410.38,63v8h39.48v4.35c0,10.12-1.27,23-12.65,23-10.81,0-12.08-12.37-12.08-16.86H410.8c0,16.72,10.12,27.26,26.56,27.26,12.36,0,27.67-3.66,27.67-38.64C465,50.32,460.82,29.25,437.07,29.25Zm12.79,31.33H425.55V56.5c0-9.55,3.09-16.86,11.66-16.86,9.7,0,12.65,9.56,12.65,19.39Z"/><polygon class="cls-1" points="529.48 31.59 511.92 31.59 489.02 62.82 488.73 62.82 488.73 6.14 473.56 6.14 473.56 107.93 488.73 107.93 488.73 82.77 497.3 72.38 515.85 107.93 532.43 107.93 506.72 60.3 529.48 31.59"/><path class="cls-1" d="M568,64l-9.69-3.37c-8-2.81-10.68-5.2-10.68-11.1,0-7,4.78-9.84,10.82-9.84,7.87,0,10,5.62,10,11.66v2h14.32V49.9c0-9.41-4.35-20.65-23.6-20.65-15.59,0-25.85,6.6-25.85,20.79,0,12.08,4.78,17.84,16.16,21.78l12.36,4.35c5.34,1.83,8.29,5.48,8.29,11.1,0,6.89-4.07,11.1-12.36,11.1-8.72,0-11.81-4.78-11.81-13.49V82.49H532.43V85.3c0,14.62,5.76,23.47,24.86,23.47,15.32,0,27.12-6.89,27.12-23C584.41,73.78,579.21,67.74,568,64Z"/><polygon class="cls-1" points="172.2 34.6 165.47 34.6 133.78 73.58 133.5 73.58 133.5 6.14 128.17 6.14 128.17 107.93 133.5 107.93 133.5 81.01 145.69 66.57 169.53 107.93 176.26 107.93 149.48 61.8 172.2 34.6"/><path class="cls-1" d="M200.37,32.61c-20,0-24.67,17-24.67,37.83s4.71,38,23.83,38c20,0,24.67-17,24.67-38S219.49,32.61,200.37,32.61ZM200,103.7c-13.86,0-18.43-12.34-18.43-33.12S186.09,37.32,200,37.32s18.43,12.33,18.43,33.26S213.81,103.7,200,103.7Z"/><path class="cls-1" d="M290.37,32.61c-11.54,0-17,8.44-18,13.8h-.28c-1-6.76-4.51-13.8-15.91-13.8-9.15,0-15.63,5.07-17.74,12.67h-.28v-11h-5.35v73.63h5.35V59.08c0-11.55,5.07-21.69,16.61-21.69,9.29,0,12.95,6.76,12.95,17.74v52.8h5.36V59.08c0-12.67,5.91-21.69,16.89-21.69,7.6,0,12.67,5.36,12.67,15.21v55.33H308V51.33C308,39.65,302.06,32.61,290.37,32.61Z"/><path class="cls-1" d="M439.57,13.81v9c6.34.37,26,.28,26-16.68H454.86S456.68,13.81,439.57,13.81Z"/><path class="cls-1" d="M435.86,22.83v-9c-17.1,0-15.29-7.66-15.29-7.66H409.89C409.89,23.11,429.53,23.2,435.86,22.83Z"/></svg>